<mxfile host="app.diagrams.net" agent="Mozilla/5.0 (Windows NT 10.0; Win64; x64) AppleWebKit/537.36 (KHTML, like Gecko) Chrome/137.0.0.0 Safari/537.36 Edg/137.0.0.0" version="27.1.5">
  <diagram name="Page-1" id="9gCDUYFfV9tz3u2wOCS8">
    <mxGraphModel dx="596" dy="614" grid="1" gridSize="10" guides="1" tooltips="1" connect="1" arrows="1" fold="1" page="1" pageScale="1" pageWidth="850" pageHeight="1100" math="0" shadow="0">
      <root>
        <mxCell id="0" />
        <mxCell id="1" parent="0" />
        <mxCell id="oU5SLDDaLibZIceyQcFQ-1" value="Feedback Database" style="ellipse;whiteSpace=wrap;html=1;aspect=fixed;" parent="1" vertex="1">
          <mxGeometry x="360" y="320" width="80" height="80" as="geometry" />
        </mxCell>
        <mxCell id="oU5SLDDaLibZIceyQcFQ-7" value="User" style="rounded=0;whiteSpace=wrap;html=1;" parent="1" vertex="1">
          <mxGeometry x="230" y="410" width="60" height="60" as="geometry" />
        </mxCell>
        <mxCell id="oU5SLDDaLibZIceyQcFQ-8" value="Exercise" style="rounded=0;whiteSpace=wrap;html=1;" parent="1" vertex="1">
          <mxGeometry x="500" y="570" width="60" height="60" as="geometry" />
        </mxCell>
        <mxCell id="oU5SLDDaLibZIceyQcFQ-9" value="Application" style="rounded=0;whiteSpace=wrap;html=1;" parent="1" vertex="1">
          <mxGeometry x="590" y="270" width="60" height="60" as="geometry" />
        </mxCell>
        <mxCell id="oU5SLDDaLibZIceyQcFQ-12" value="" style="endArrow=classic;html=1;rounded=0;exitX=1;exitY=0.5;exitDx=0;exitDy=0;entryX=-0.006;entryY=0.601;entryDx=0;entryDy=0;entryPerimeter=0;edgeStyle=orthogonalEdgeStyle;curved=1;" parent="1" source="oU5SLDDaLibZIceyQcFQ-7" target="oU5SLDDaLibZIceyQcFQ-8" edge="1">
          <mxGeometry width="50" height="50" relative="1" as="geometry">
            <mxPoint x="190" y="320" as="sourcePoint" />
            <mxPoint x="240" y="270" as="targetPoint" />
          </mxGeometry>
        </mxCell>
        <mxCell id="oU5SLDDaLibZIceyQcFQ-13" value="&lt;font style=&quot;font-size: 9px;&quot;&gt;Provides a rating of an exercise&lt;/font&gt;" style="text;html=1;align=center;verticalAlign=middle;resizable=0;points=[];autosize=1;strokeColor=none;fillColor=none;" parent="1" vertex="1">
          <mxGeometry x="310" y="510" width="150" height="30" as="geometry" />
        </mxCell>
        <mxCell id="oU5SLDDaLibZIceyQcFQ-16" value="" style="endArrow=classic;html=1;rounded=0;exitX=0.914;exitY=0.177;exitDx=0;exitDy=0;entryX=0;entryY=0.5;entryDx=0;entryDy=0;exitPerimeter=0;edgeStyle=orthogonalEdgeStyle;curved=1;" parent="1" source="oU5SLDDaLibZIceyQcFQ-1" target="oU5SLDDaLibZIceyQcFQ-9" edge="1">
          <mxGeometry width="50" height="50" relative="1" as="geometry">
            <mxPoint x="500" y="430" as="sourcePoint" />
            <mxPoint x="550" y="380" as="targetPoint" />
          </mxGeometry>
        </mxCell>
        <mxCell id="oU5SLDDaLibZIceyQcFQ-17" value="&lt;font style=&quot;font-size: 9px;&quot;&gt;Generates exercise based on feedback&lt;/font&gt;" style="text;html=1;align=center;verticalAlign=middle;resizable=0;points=[];autosize=1;strokeColor=none;fillColor=none;" parent="1" vertex="1">
          <mxGeometry x="630" y="440" width="180" height="30" as="geometry" />
        </mxCell>
        <mxCell id="oU5SLDDaLibZIceyQcFQ-18" value="&lt;font style=&quot;font-size: 9px;&quot;&gt;App given feedback&lt;/font&gt;" style="text;html=1;align=center;verticalAlign=middle;resizable=0;points=[];autosize=1;strokeColor=none;fillColor=none;" parent="1" vertex="1">
          <mxGeometry x="460" y="330" width="100" height="30" as="geometry" />
        </mxCell>
        <mxCell id="oU5SLDDaLibZIceyQcFQ-20" value="" style="endArrow=classic;html=1;rounded=0;exitX=0.75;exitY=1;exitDx=0;exitDy=0;entryX=1;entryY=0.5;entryDx=0;entryDy=0;edgeStyle=orthogonalEdgeStyle;curved=1;" parent="1" source="oU5SLDDaLibZIceyQcFQ-9" target="oU5SLDDaLibZIceyQcFQ-8" edge="1">
          <mxGeometry width="50" height="50" relative="1" as="geometry">
            <mxPoint x="590" y="490" as="sourcePoint" />
            <mxPoint x="640" y="440" as="targetPoint" />
          </mxGeometry>
        </mxCell>
        <mxCell id="oU5SLDDaLibZIceyQcFQ-22" value="" style="endArrow=classic;html=1;rounded=0;exitX=0.5;exitY=0;exitDx=0;exitDy=0;entryX=0.68;entryY=1;entryDx=0;entryDy=0;entryPerimeter=0;edgeStyle=orthogonalEdgeStyle;curved=1;" parent="1" source="oU5SLDDaLibZIceyQcFQ-8" target="oU5SLDDaLibZIceyQcFQ-1" edge="1">
          <mxGeometry width="50" height="50" relative="1" as="geometry">
            <mxPoint x="540" y="550" as="sourcePoint" />
            <mxPoint x="483" y="416" as="targetPoint" />
          </mxGeometry>
        </mxCell>
        <mxCell id="oU5SLDDaLibZIceyQcFQ-15" value="&lt;font style=&quot;font-size: 9px;&quot;&gt;Feedback is submitted to database&lt;/font&gt;" style="text;html=1;align=center;verticalAlign=middle;resizable=0;points=[];autosize=1;strokeColor=none;fillColor=none;" parent="1" vertex="1">
          <mxGeometry x="420" y="450" width="160" height="30" as="geometry" />
        </mxCell>
      </root>
    </mxGraphModel>
  </diagram>
</mxfile>
